<svg width="15" height="40" viewBox="0 0 15 40" fill="none" xmlns="http://www.w3.org/2000/svg">
<path d="M13.3333 25H1.66667C0.741667 25 0 25.75 0 26.6667V38.3333C0 39.25 0.741667 40 1.66667 40H13.3333C14.2583 40 15 39.25 15 38.3333V26.6667C15 25.75 14.2583 25 13.3333 25ZM5.83333 36.6667L1.66667 32.5L2.84167 31.325L5.83333 34.3083L12.1583 27.9833L13.3333 29.1667L5.83333 36.6667Z" fill="#4A6BEE"/>
<path d="M13.3333 1.66667V13.3333H1.66667V1.66667H13.3333ZM13.3333 0H1.66667C0.75 0 0 0.75 0 1.66667V13.3333C0 14.25 0.75 15 1.66667 15H13.3333C14.25 15 15 14.25 15 13.3333V1.66667C15 0.75 14.25 0 13.3333 0Z" fill="#BFBFC0"/>
</svg>
