<svg width="16" height="16" viewBox="0 0 16 16" fill="none" xmlns="http://www.w3.org/2000/svg">
<path d="M3.2332 0L3.2332 5.33333H4.2332V0L3.2332 0ZM11.7665 0V5.33333H12.7665V0L11.7665 0ZM1.59987 3.16667L14.3999 3.16667V2.16667L1.59987 2.16667V3.16667ZM14.9665 3.73333V14.4L15.9665 14.4V3.73333H14.9665ZM14.3999 14.9667H1.59987V15.9667H14.3999V14.9667ZM1.0332 14.4L1.0332 3.73333H0.0332031L0.0332031 14.4H1.0332ZM1.59987 14.9667C1.28691 14.9667 1.0332 14.713 1.0332 14.4H0.0332031C0.0332031 15.2652 0.734624 15.9667 1.59987 15.9667V14.9667ZM14.9665 14.4C14.9665 14.713 14.7128 14.9667 14.3999 14.9667V15.9667C15.2651 15.9667 15.9665 15.2652 15.9665 14.4L14.9665 14.4ZM14.3999 3.16667C14.7128 3.16667 14.9665 3.42037 14.9665 3.73333H15.9665C15.9665 2.86809 15.2651 2.16667 14.3999 2.16667V3.16667ZM1.59987 2.16667C0.734624 2.16667 0.0332031 2.86809 0.0332031 3.73333H1.0332C1.0332 3.42037 1.28691 3.16667 1.59987 3.16667V2.16667Z" fill="#2B2A2C"/>
</svg>
