<svg width="60" height="60" viewBox="0 0 60 60" fill="none" xmlns="http://www.w3.org/2000/svg">
<path d="M28.1004 39.4999L26.1798 41.8046L28.5311 43.7639L30.443 41.374L28.1004 39.4999ZM14.7798 32.3046L26.1798 41.8046L30.0209 37.1952L18.6209 27.6952L14.7798 32.3046ZM30.443 41.374L45.643 22.374L40.9578 18.6258L25.7578 37.6258L30.443 41.374ZM30.0004 53.5999C16.9665 53.5999 6.40039 43.0338 6.40039 29.9999H0.400391C0.400391 46.3475 13.6528 59.5999 30.0004 59.5999V53.5999ZM53.6004 29.9999C53.6004 43.0338 43.0343 53.5999 30.0004 53.5999V59.5999C46.348 59.5999 59.6004 46.3475 59.6004 29.9999H53.6004ZM30.0004 6.3999C43.0343 6.3999 53.6004 16.966 53.6004 29.9999H59.6004C59.6004 13.6523 46.348 0.399902 30.0004 0.399902V6.3999ZM30.0004 0.399902C13.6528 0.399902 0.400391 13.6523 0.400391 29.9999H6.40039C6.40039 16.966 16.9665 6.3999 30.0004 6.3999V0.399902Z" fill="#275BEB"/>
</svg>
